# xmcd CD database file
#
# Track frame offsets:
#	150
#	21416
#	27016
#	32506
#	37498
#	44538
#	51231
#	56128
#	62546
#	75413
#	80671
#	89966
#	92986
#	99428
#	105596
#	115601
#	125063
#	138866
#	152420
#	169599
#	180547
#	185020
#	198297
#	202523
#	214107
#	233116
#	248941
#
# Disc length: 3474 seconds
#
# Revision: 1
# Processed by: cddbd v1.5.2PL0 Copyright (c) Steve Scherf et al.
# Submitted via: CDex 1.51
#
DISCID=710d901b
DTITLE=Marc Antoine Charpentier - Musique Sacrée
DYEAR=1900
DGENRE=Musique Sacrée
TTITLE0=Te Deum en ré majeur (extrait) [Robert Dunand, Musicum Academicum de Genève]
TTITLE1=Te Deum en ut majeur - Prélude
TTITLE2=Te aeternum Patrem
TTITLE3=Tibi Cherubim
TTITLE4=Pleni sunt caeli
TTITLE5=Te gloriosus
TTITLE6=Te Martyrum
TTITLE7=Te per orbem
TTITLE8=Tu Rex gloriae
TTITLE9=Tu, ad liberandum
TTITLE10=Tu, devicto mortis
TTITLE11=Tu ad dexteram
TTITLE12=Judex crederis
TTITLE13=Te ergo quaesumus
TTITLE14=Aeterna fac cum Sanctis
TTITLE15=Dignare, Domine
TTITLE16=In te, Domine
TTITLE17=In te, Domine
TTITLE18=Second Répons après la 2è leçon du 1er Nocturne du jeudi St [György Vashegyi, Orfeo Orch]
TTITLE19=Salve Regina à trois choeurs - Salve Regina
TTITLE20=Ad te clamamus
TTITLE21=Eja ergo, advocata nostra
TTITLE22=Motets pour les Trépassés à 8 - Prélude pour Miseremini
TTITLE23=Miseremini mei
TTITLE24=Heu mihi Domine
TTITLE25=Ah poenis mei
TTITLE26=Misereremini mei
EXTD=
EXTT0=
EXTT1=
EXTT2=
EXTT3=
EXTT4=
EXTT5=
EXTT6=
EXTT7=
EXTT8=
EXTT9=
EXTT10=
EXTT11=
EXTT12=
EXTT13=
EXTT14=
EXTT15=
EXTT16=
EXTT17=
EXTT18=
EXTT19=
EXTT20=
EXTT21=
EXTT22=
EXTT23=
EXTT24=
EXTT25=
EXTT26=
PLAYORDER=
